<svg width="40" height="24" viewBox="0 0 40 24" fill="none" xmlns="http://www.w3.org/2000/svg">
<path d="M0.492462 10.8041L10.603 0.49485C10.9278 0.164953 11.3339 1.90735e-06 11.74 1.90735e-06C12.146 1.90735e-06 12.552 0.164953 12.8769 0.49485C13.5266 1.15464 13.5266 2.18558 12.8769 2.84537L5.52742 10.3505L38.3758 10.3505C39.2691 10.3505 40 11.0928 40 12C40 12.9072 39.2691 13.6495 38.3758 13.6495L5.52742 13.6495L12.8769 21.1546C13.5266 21.8144 13.5266 22.8454 12.8769 23.5052C12.2272 24.1649 11.2121 24.1649 10.5624 23.5052L0.451843 13.1959C-0.15723 12.4948 -0.157211 11.4227 0.492462 10.8041Z" fill="#E5E5E5"/>
</svg>
