<svg width="40" height="24" viewBox="0 0 40 24" fill="none" xmlns="http://www.w3.org/2000/svg">
<path d="M39.5075 13.1959L29.397 23.5051C29.0722 23.835 28.6661 24 28.26 24C27.854 24 27.448 23.835 27.1231 23.5051C26.4734 22.8454 26.4734 21.8144 27.1231 21.1546L34.4726 13.6495H1.62419C0.730884 13.6495 0 12.9072 0 12C0 11.0928 0.730884 10.3505 1.62419 10.3505H34.4726L27.1231 2.84537C26.4734 2.18557 26.4734 1.15464 27.1231 0.494845C27.7728 -0.164948 28.7879 -0.164948 29.4376 0.494845L39.5482 10.8041C40.1572 11.5052 40.1572 12.5773 39.5075 13.1959Z" fill="#06942A"/>
</svg>
